<?xml version="1.0" encoding="UTF-8"?>
<!DOCTYPE svg PUBLIC "-//W3C//DTD SVG 1.1//EN" "http://www.w3.org/Graphics/SVG/1.1/DTD/svg11.dtd">
<!-- Creator: CorelDRAW X6 -->
<svg xmlns="http://www.w3.org/2000/svg" xml:space="preserve" width="16.5354in" height="11.6929in" version="1.1" style="shape-rendering:geometricPrecision; text-rendering:geometricPrecision; image-rendering:optimizeQuality; fill-rule:evenodd; clip-rule:evenodd"
viewBox="0 0 16535 11693"
 xmlns:xlink="http://www.w3.org/1999/xlink">
 <defs>
  <style type="text/css">
   <![CDATA[
    .fil0 {fill:#006038;fill-rule:nonzero}
   ]]>
  </style>
 </defs>
 <g id="__x2550__x255d__x2593_π_x0020_1">
  <metadata id="CorelCorpID_0Corel-Layer"/>
  <path class="fil0" d="M11720 6687l0 1c18,21 20,42 0,77l0 -79zm0 293l0 0c34,9 86,11 94,15 14,8 27,-17 8,-31 -7,-6 -26,-23 -46,-36 -20,-13 -41,-25 -56,-36l0 -48c18,-6 43,-8 73,-10 38,-3 87,-40 121,-29 33,10 57,7 104,117 7,20 -14,50 -32,80 -28,44 -36,87 -66,134 -21,33 -80,132 -48,125 111,-24 146,-19 208,36 39,35 78,58 82,99l0 11c0,8 -2,16 -5,25 -64,109 -208,26 -333,78 -21,24 -14,65 -64,81 -13,4 -26,10 -39,17l0 -187c43,-4 81,-7 103,-9 24,-2 36,-28 18,-39 -6,-4 -55,-3 -121,2l0 -283c24,2 41,3 48,-7 8,-9 8,-28 -2,-35 -13,-5 -31,-8 -46,-9l0 -58zm0 748l0 0c32,-4 69,-10 102,-14 46,-6 75,-32 93,-18 53,40 62,46 88,122 24,67 -74,90 -125,79 -77,-19 -97,-29 -159,-24l0 -145zm-47 -1091l0 0c20,16 36,36 47,50l0 79c-10,18 -25,38 -47,63l0 -192zm0 266l0 0c14,10 26,22 19,53 -3,11 11,19 29,24l0 58c-16,-2 -32,-2 -39,-1l-8 3 0 -137zm47 -13l0 0c-11,-9 -19,-17 -21,-25 -2,-11 6,-19 21,-24l0 48zm0 714l0 0c-17,9 -32,20 -47,30l0 -213c17,-2 32,-3 47,-4l0 187zm-47 128l0 0c15,0 31,-2 47,-4l0 145c-11,2 -24,4 -38,6l-9 5 0 -152zm47 -360l0 0c-15,1 -31,2 -47,3l0 -129c6,0 10,-1 13,-4 8,-8 23,-16 10,-28 -5,-6 -10,-8 -23,-7l0 -127c5,6 22,11 38,9l9 0 0 283zm-194 -591l0 0c6,-3 12,-7 16,-12 38,-38 -3,-148 73,-156 21,-1 41,10 58,25l0 192c-4,5 -9,10 -13,16 -4,3 -9,6 -12,29 2,16 14,22 25,30l0 137c-11,7 -5,24 -1,38l1 2 0 127 -4 0c-21,4 -17,10 -23,30 1,5 16,10 26,10l0 129c-19,2 -39,3 -59,5 -29,2 -59,4 -88,7l0 -93c10,3 24,2 29,-4 17,-18 18,-22 -2,-30 -1,2 -8,-12 -19,0 -4,5 -7,8 -9,10l0 -191c10,-6 19,-15 21,-22 3,-24 4,-33 -16,-29l-5 3 0 -250zm147 854l0 0c-33,27 -58,58 -59,76 -1,19 24,23 59,21l0 152c-25,27 0,157 -24,217 -19,45 -44,100 -69,138 -17,24 -36,46 -55,63l0 -859 26 -5c39,-7 82,-13 121,-17l0 213zm-311 -895l0 0c29,-8 62,-5 77,9 26,23 58,43 87,32l0 250c-3,1 -8,3 -11,11 -10,20 -14,24 -8,43 3,2 11,-1 19,-7l0 191c-4,5 -4,5 -8,18 0,3 4,5 8,6l0 93c-34,4 -68,8 -99,15 -13,3 -39,5 -61,19l-4 2 0 -147c25,-14 49,-35 52,-51 7,-61 6,-92 -44,-80 0,2 -3,3 -8,4l0 -119c25,-14 56,-47 61,-77 6,-59 -14,-100 -61,-90l0 -122zm164 1562l0 0c-46,39 -93,52 -120,31 -10,-8 -24,-25 -44,-47l0 -176c40,-3 74,-8 82,-23 27,-47 25,-93 19,-149 1,-22 -29,-9 -78,-15 -8,-1 -15,-1 -24,-1l0 -138c17,-1 31,-3 39,-12 22,-25 -23,-50 -19,-73 5,-38 101,-49 111,-75 10,-29 26,-14 30,-48 3,-32 -71,2 -102,11 -23,7 -41,10 -60,15l0 -129c46,-11 102,-22 164,-32l0 859zm-507 -902l0 0c22,-18 16,-274 4,-353 -15,-39 -19,-93 -13,-122 8,-40 30,-50 55,-38 29,15 60,58 93,127 23,47 -2,40 -2,58 -2,87 -10,176 -11,235 0,35 48,39 56,18 8,-143 -10,-335 3,-419 2,-54 -22,-123 1,-139 26,-20 84,-8 111,6 21,11 20,-25 36,-29l10 -3 0 122 -4 1c-8,7 -6,17 -6,23 -6,54 -15,97 -14,147 4,4 14,2 24,-4l0 119c-11,3 -29,9 -30,37 -4,54 -37,53 -20,103 7,6 28,-1 50,-14l0 147c-15,12 -27,33 -46,36 -33,5 -61,3 -79,6 -24,3 -37,9 -66,13 -26,4 -85,14 -123,47 -37,31 -41,123 -61,161 -17,32 -34,65 -48,92 -19,34 -35,62 -71,71 -50,12 -90,-50 -95,-89l0 -13 0 -2c15,-57 27,-103 33,-155 3,-35 -10,-69 -6,-97 4,-27 23,-39 35,-53 15,-18 29,-38 56,-33 21,4 34,21 56,23 32,4 49,-9 72,-27zm343 886l0 0c-16,-18 -34,-38 -58,-60 -36,-32 -98,-56 -131,-86 -21,-34 101,-25 189,-29l0 176zm0 -363l0 0 0 -138c-15,1 -31,1 -44,2 -83,11 -189,0 -269,21 -83,23 -65,57 -26,93 20,19 26,32 79,59 52,25 177,-34 260,-37zm0 -319l0 0 0 -129c-41,10 -76,20 -99,31 -23,11 -86,48 -109,61 -54,32 -42,55 -19,76 56,47 135,23 150,8 29,-30 52,-40 77,-47z"/>
  <path class="fil0" d="M9116 7203c75,2 123,-6 122,-20 3,-62 4,-167 -15,-248 -10,-41 20,-67 43,-81 56,-32 71,-47 101,-43 55,8 95,42 133,92 19,26 34,-11 12,123 -12,69 -1,74 9,84 30,13 63,3 110,-12 58,-16 78,-105 191,31 16,16 28,38 7,67 -25,33 -84,52 -149,89 -86,48 -227,57 -207,119 59,147 219,359 430,507 54,37 120,69 194,89 108,30 198,52 145,80 -82,42 -385,91 -471,45 -87,-47 -352,-466 -398,-548 -2,-4 -10,-4 -14,7 -49,108 -153,310 -259,394 -46,37 -115,18 -137,2 -24,-19 -178,-52 -202,-100 -14,-30 7,-32 24,-35 203,-8 231,-67 278,-104 125,-96 143,-262 127,-269 -186,18 -251,40 -308,-27 -115,-231 -22,-270 86,-256 54,8 127,15 146,16z"/>
  <path class="fil0" d="M7248 7422c22,7 41,20 61,57 55,89 32,199 48,269 14,9 50,1 90,-5 54,-9 113,-20 111,-34 -8,-75 4,-560 -7,-627 -2,-7 -6,-28 -8,-35 -25,-112 81,-144 113,-141 55,6 164,109 148,156 -29,49 -32,188 -33,320 -1,112 -3,222 3,263 0,34 140,-9 188,-27 59,-11 46,-196 96,-231 25,-17 164,7 186,124 3,64 -16,146 -31,226 -11,56 -20,123 -22,148 -2,27 -110,138 -146,163 -57,14 -75,-120 -75,-193 0,-39 1,-52 -10,-61 -33,-3 -121,12 -171,39 -28,15 -37,54 -74,61 -145,-6 -294,24 -316,46 -13,13 -82,72 -93,89 -12,16 -63,-1 -79,5 -37,12 -59,-54 -101,-109 -44,-56 -14,-89 13,-151 29,-69 39,-189 32,-272 0,-42 -2,-90 77,-80z"/>
  <path class="fil0" d="M6163 6861c25,1 53,1 81,-1 51,-6 115,-49 161,-50 67,0 158,94 181,154 14,52 -19,93 -55,113l-32 9c-35,19 -99,102 -96,119 -2,25 -2,41 23,60 16,22 -22,119 -70,137 -14,8 -26,16 -62,17 -44,-2 -88,9 -133,28l0 -257c21,-15 36,-32 42,-45 26,-34 57,-92 37,-136 -18,-14 -50,-16 -80,-12l0 -134zm-435 126l0 0c42,-24 72,-38 119,-55 -2,-70 -11,-143 -9,-210 1,-14 -4,-27 -9,-36 -28,-58 36,-134 130,-155 26,-5 141,50 141,102 -2,75 -10,158 -4,224 18,2 40,4 67,5l0 134c-28,4 -53,13 -69,20 -16,26 -25,189 -5,199 24,4 51,-9 74,-26l0 257c-32,14 -65,31 -95,51 -4,234 -22,453 -30,685 -16,122 -58,235 -121,243 -44,-5 -88,-102 -90,-257l-10 -636c-25,4 -55,14 -89,28l0 -219c27,0 41,-7 74,-26 21,-13 14,-153 7,-179 -10,-15 -29,7 -35,11 -16,9 -30,16 -46,20l0 -180zm-156 75l0 0c26,9 47,-11 81,-29 30,-19 55,-32 76,-45l0 180c-27,8 -54,8 -78,1 -24,-11 2,161 30,169 21,2 35,4 47,4l0 219c-24,9 -50,21 -80,32 -14,12 -26,24 -39,38 -14,16 -23,40 -39,44 -38,10 -81,4 -114,-20 -26,-22 -28,-75 -66,-134 -30,-38 -61,-67 -61,-120 20,-49 27,-74 43,-104 4,-15 7,-28 9,-51 5,-56 13,-103 34,-157 16,-30 94,-79 156,-27z"/>
  <path class="fil0" d="M12175 8621l0 13c-10,1 -17,3 -22,6 -4,3 -8,7 -12,13l-92 149 0 89c0,19 4,30 10,35 5,4 17,7 35,9l0 12 -168 0 0 -12c19,-2 30,-5 35,-8 7,-6 10,-17 10,-36l0 -71 -88 -160c-3,-6 -5,-9 -6,-11 -9,-11 -20,-16 -32,-16l0 -13 161 0 0 13c-17,0 -27,1 -31,3 -5,2 -7,6 -7,13 0,3 1,8 4,14 4,7 6,11 7,14l58 112 54 -90c4,-6 7,-13 11,-20 5,-12 8,-20 8,-26 0,-8 -4,-14 -11,-17 -7,-3 -17,-4 -29,-4l0 -13 106 0zm-1382 222l0 0 0 -66c10,-2 18,-5 23,-9 14,-11 22,-30 22,-61 0,-24 -5,-42 -15,-53 -7,-8 -17,-14 -29,-16l0 -18c39,1 70,9 91,23 24,15 34,35 34,63 0,25 -9,45 -27,60 -10,8 -27,16 -48,23l97 137c3,4 6,6 9,7 4,1 7,2 11,2l0 12 -98 0 -69 -104zm946 92l0 0 0 12 -172 0 0 -12c19,0 31,-2 36,-7 7,-5 11,-18 11,-37l0 -254c-25,0 -43,4 -56,12 -21,13 -33,36 -37,70l-14 0 1 -97 290 0 1 97 -15 0c-4,-33 -16,-57 -36,-70 -14,-8 -32,-12 -56,-12l0 254c0,20 4,32 10,37 6,5 19,7 37,7zm-281 0l0 0 0 12 -168 0 0 -12c20,-2 32,-5 37,-10 5,-5 7,-13 7,-25l0 -234c0,-14 -4,-24 -14,-29 -7,-4 -17,-5 -30,-5l0 -13 168 0 0 13c-14,0 -24,1 -30,5 -10,4 -15,14 -15,29l0 234c0,14 4,23 13,28 7,4 18,6 32,6zm-237 -217l0 0 -14 0c-6,-22 -16,-41 -28,-57 -19,-22 -40,-32 -66,-32 -14,0 -26,4 -36,12 -10,8 -16,19 -16,33 0,14 4,24 10,31 7,7 20,16 40,26l71 35c13,7 24,16 32,28 14,18 21,39 21,62 0,25 -9,47 -26,66 -21,24 -53,35 -94,35 -15,0 -29,-2 -42,-6 -13,-3 -27,-7 -40,-11 -4,0 -7,1 -9,5 -2,3 -4,7 -5,12l-15 0 0 -120 15 0c6,29 16,53 30,71 18,22 41,33 69,33 20,0 35,-5 45,-15 10,-10 16,-24 16,-39 0,-14 -5,-25 -16,-35 -6,-6 -20,-14 -38,-24l-32 -15c-36,-17 -60,-36 -72,-58 -8,-13 -11,-29 -11,-46 0,-30 11,-54 33,-72 19,-16 43,-22 73,-22 16,0 32,2 48,8 17,5 25,8 27,8 6,0 10,-3 13,-8l3 -8 15 0 0 104zm-428 -97l0 0 0 18c-5,-1 -10,-1 -15,-1 -13,0 -21,1 -24,4 -3,2 -5,8 -6,17l0 123c18,0 32,-1 44,-4l0 66 -31 -46 -13 0 0 94c0,18 3,30 9,34 5,4 16,8 33,10l0 12 -163 0 0 -12c18,-2 29,-5 33,-9 6,-5 9,-16 9,-35l0 -213c0,-20 -3,-33 -11,-37 -5,-5 -16,-7 -31,-7l0 -13 155 0 10 0zm-3529 326l0 0 0 -12 1 0 0 12 -1 0zm0 -229l0 0 13 0c4,-34 17,-57 37,-70 13,-8 31,-12 55,-12l0 254c0,20 -3,32 -10,37 -5,5 -18,7 -36,7l0 12 172 0 0 -12c-18,0 -31,-2 -37,-7 -7,-5 -10,-18 -10,-37l0 -254c23,0 42,4 56,12 20,13 33,36 36,70l15 0 -1 -97 -290 0 0 97zm3033 -84l0 0 0 -13 278 0 0 97 -12 0c-6,-32 -17,-54 -35,-66 -15,-10 -40,-15 -76,-15 -14,0 -24,1 -28,4 -4,3 -7,9 -7,19l0 112c25,0 43,-5 54,-14 13,-11 21,-30 25,-58l12 0 0 163 -12 0c-3,-29 -11,-49 -23,-59 -12,-11 -31,-16 -56,-16l0 117c0,10 3,18 9,20 6,4 17,6 32,6 29,0 51,-5 70,-15 24,-14 42,-36 57,-71l13 0 -19 100 -282 0 0 -12c16,-2 27,-4 31,-7 8,-4 12,-14 12,-27l0 -234c0,-14 -4,-24 -13,-29 -6,-4 -16,-5 -30,-5zm-42 -13l0 0 0 13c-13,1 -22,5 -27,10 -5,5 -10,15 -16,30l-110 283 -14 0 -123 -289c-6,-14 -12,-23 -16,-26 -5,-4 -13,-6 -26,-8l0 -13 162 0 0 13c-17,0 -27,1 -32,3 -6,2 -9,8 -9,17 0,4 2,11 6,21 4,11 7,18 9,22l63 152 62 -159c3,-7 5,-13 7,-19 2,-6 2,-11 2,-15 0,-15 -13,-22 -41,-22l0 -13 103 0zm-361 314l0 0 0 12 -169 0 0 -12c20,-2 32,-5 37,-10 5,-5 7,-13 7,-25l0 -234c0,-14 -4,-24 -14,-29 -6,-4 -17,-5 -30,-5l0 -13 169 0 0 13c-15,0 -25,1 -31,5 -10,4 -15,14 -15,29l0 234c0,14 4,23 13,28 7,4 18,6 33,6zm-538 12l0 0 0 -12c16,-2 27,-5 32,-8 7,-6 11,-16 11,-30l0 -229c-13,-16 -22,-26 -29,-29 -4,-4 -9,-5 -13,-5l0 -13 102 0 167 206 1 -146c0,-16 -3,-27 -8,-34 -6,-9 -19,-13 -37,-13l0 -13 104 0 0 13c-17,2 -27,5 -32,11 -4,5 -6,15 -6,27l0 284 -14 0 -215 -261 -1 192c0,18 3,30 10,36 6,6 18,10 37,12l0 12 -109 0zm-37 -326l0 0 0 13c-15,2 -25,5 -29,9 -6,6 -10,17 -10,32l0 154c0,17 -2,33 -5,49 -5,20 -13,34 -21,44 -11,12 -27,22 -45,27 -16,5 -32,8 -50,8 -16,0 -31,-2 -44,-5 -22,-5 -39,-14 -53,-26 -13,-11 -21,-21 -25,-31 -6,-13 -9,-31 -9,-56l0 -161c0,-19 -4,-31 -10,-36 -4,-4 -15,-7 -31,-8l0 -13 163 0 0 13c-18,0 -29,2 -34,6 -8,6 -12,19 -12,38l0 161c0,33 6,57 17,72 12,15 29,23 52,23 37,0 62,-14 76,-41 7,-15 11,-36 11,-64l0 -147c0,-17 -3,-28 -8,-34 -7,-9 -20,-13 -39,-13l0 -13 106 0zm-838 326l0 0 0 -12c16,-2 26,-5 31,-8 7,-6 11,-16 11,-30l0 -229c-13,-16 -22,-26 -27,-29 -5,-4 -9,-5 -14,-5l0 -13 102 0 167 206 1 -146c0,-16 -2,-27 -8,-34 -6,-9 -19,-13 -36,-13l0 -13 103 0 0 13c-17,2 -27,5 -30,11 -5,5 -7,15 -7,27l0 284 -14 0 -214 -261 -1 192c0,18 3,30 9,36 6,6 19,10 36,12l0 12 -109 0zm-346 -313l0 0 0 -13 278 0 0 97 -12 0c-5,-32 -17,-54 -35,-66 -15,-10 -40,-15 -76,-15 -14,0 -24,1 -28,4 -5,3 -7,9 -7,19l0 112c25,0 42,-5 53,-14 13,-11 20,-30 24,-58l13 0 0 163 -13 0c-3,-29 -10,-49 -23,-59 -12,-11 -30,-16 -55,-16l0 117c0,10 2,18 8,20 6,4 17,6 32,6 29,0 52,-5 70,-15 23,-14 43,-36 57,-71l14 0 -20 100 -282 0 0 -12c16,-2 27,-4 31,-7 7,-4 11,-14 11,-27l0 -234c0,-14 -4,-24 -13,-29 -6,-4 -16,-5 -30,-5zm-67 84l0 0 -14 0c-6,-22 -15,-41 -29,-57 -19,-22 -40,-32 -66,-32 -14,0 -26,4 -36,12 -10,8 -16,19 -16,33 0,14 4,24 11,31 6,7 19,16 39,26l71 35c13,7 24,16 32,28 14,18 21,39 21,62 0,25 -9,47 -26,66 -22,24 -53,35 -93,35 -15,0 -29,-2 -42,-6 -13,-3 -27,-7 -40,-11 -4,0 -7,1 -9,5 -2,3 -4,7 -5,12l-14 0 0 -120 14 0c6,29 16,53 29,71 18,22 41,33 69,33 20,0 34,-5 45,-15 10,-10 16,-24 16,-39 0,-14 -5,-25 -15,-35 -7,-6 -21,-14 -39,-24l-32 -15c-35,-17 -60,-36 -72,-58 -7,-13 -11,-29 -11,-46 0,-30 11,-54 32,-72 18,-16 43,-22 74,-22 16,0 31,2 48,8 17,5 26,8 28,8 6,0 10,-3 13,-8l3 -8 15 0 0 104zm-280 90l0 0 0 56 -166 0 0 -56 166 0zm-524 -188l0 0 0 97 -2 0 2 -97zm0 314l0 0c-11,0 -19,-5 -26,-15 -6,-7 -14,-25 -25,-52l-108 -254 -13 0 -21 51 0 55 47 113 -47 0 0 20 54 0c7,16 12,26 14,32 6,15 9,26 9,32 0,8 -3,13 -8,15 -6,3 -16,4 -32,4l0 12 155 0 0 -12zm-193 -270l0 0 0 55 -2 -4 -45 117 47 0 0 20 -54 0c-8,18 -13,32 -17,42 -3,10 -5,17 -5,20 0,8 5,14 14,18 6,2 15,3 26,3l0 12 -91 0 0 -14c10,-2 17,-7 22,-14 5,-6 11,-20 20,-40l86 -214zm-128 -31l0 0 0 -14 7 0 0 13 -7 1zm0 -14l0 0 0 14c-6,1 -11,3 -14,5 -5,3 -9,7 -12,13l-92 149 0 89c0,19 3,30 9,35 5,4 17,7 35,9l0 12 -167 0 0 -12c19,-2 31,-5 34,-8 7,-6 11,-17 11,-36l0 -71 -89 -160c-3,-6 -5,-9 -7,-11 -9,-11 -19,-16 -32,-16l0 -13 162 0 0 13c-17,0 -27,1 -33,3 -5,2 -7,6 -7,13 0,3 2,8 5,14 3,7 6,11 7,14l58 112 53 -90c4,-6 8,-13 11,-20 6,-12 8,-20 8,-26 0,-8 -3,-14 -10,-17 -8,-3 -18,-4 -31,-4l0 -13 99 0zm0 312l0 0 -6 2 0 12 6 0 0 -14zm-964 14l0 0 0 -12c17,-2 26,-5 31,-8 7,-6 11,-16 11,-30l0 -229c-13,-16 -22,-26 -27,-29 -5,-4 -9,-5 -14,-5l0 -13 102 0 167 206 1 -146c0,-16 -2,-27 -8,-34 -6,-9 -18,-13 -36,-13l0 -13 103 0 0 13c-16,2 -27,5 -31,11 -5,5 -7,15 -7,27l0 284 -14 0 -214 -261 -1 192c0,18 3,30 9,36 6,6 19,10 36,12l0 12 -109 0zm-43 -326l0 0 0 13c-15,2 -24,5 -29,9 -6,6 -9,17 -9,32l0 154c0,17 -2,33 -6,49 -5,20 -12,34 -22,44 -11,12 -26,22 -45,27 -16,5 -32,8 -49,8 -16,0 -31,-2 -45,-5 -22,-5 -39,-14 -53,-26 -12,-11 -21,-21 -25,-31 -6,-13 -9,-31 -9,-56l0 -161c0,-19 -3,-31 -10,-36 -4,-4 -14,-7 -29,-8l0 -13 163 0 0 13c-19,0 -31,2 -35,6 -8,6 -12,19 -12,38l0 161c0,33 6,57 17,72 11,15 29,23 52,23 36,0 61,-14 75,-41 7,-15 11,-36 11,-64l0 -147c0,-17 -2,-28 -8,-34 -7,-9 -19,-13 -39,-13l0 -13 106 0zm-397 97l0 0 -14 0c-6,-22 -15,-41 -29,-57 -19,-22 -40,-32 -66,-32 -14,0 -26,4 -37,12 -10,8 -16,19 -16,33 0,14 4,24 11,31 6,7 19,16 39,26l71 35c13,7 23,16 32,28 14,18 20,39 20,62 0,25 -9,47 -26,66 -22,24 -53,35 -93,35 -15,0 -29,-2 -42,-6 -13,-3 -26,-7 -40,-11 -4,0 -7,1 -8,5 -2,3 -4,7 -5,12l-14 0 0 -120 14 0c6,29 16,53 29,71 18,22 41,33 69,33 20,0 34,-5 45,-15 10,-10 16,-24 16,-39 0,-14 -5,-25 -15,-35 -7,-6 -20,-14 -39,-24l-32 -15c-35,-17 -60,-36 -72,-58 -7,-13 -11,-29 -11,-46 0,-30 11,-54 32,-72 19,-16 43,-22 74,-22 16,0 31,2 48,8 17,5 26,8 28,8 6,0 10,-3 13,-8l3 -8 15 0 0 104z"/>
  <path class="fil0" d="M9691 3253l0 -87c-41,-21 -72,-36 -92,-41 -9,-2 -36,-6 -45,-6 -22,-3 -24,6 -22,17 6,26 34,36 42,35 26,-5 34,6 52,13 12,3 41,10 33,19 -9,9 -10,1 -20,7 -8,6 -38,-12 -49,-2 -6,6 1,23 -10,26 -7,1 -17,-9 -27,-15 -27,-15 -55,-42 -81,-53 -29,-12 -31,2 -28,21 1,10 0,15 9,35 10,21 69,31 89,52 13,12 24,15 19,21 -10,17 -20,31 -38,38 -17,8 -87,-65 -88,-44 2,16 15,36 17,53 5,26 5,46 6,53 5,16 36,23 72,12 15,-6 34,-15 50,-24 22,-13 45,-64 58,-57 30,16 31,22 53,49l0 -79c-23,-13 -43,-24 -36,-33 5,-6 19,-9 36,-9zm-138 -213l0 0c9,0 65,-74 79,-100 3,-15 15,-31 22,-38 12,-9 20,-7 24,1 6,10 5,30 -1,58 -4,19 -9,10 -13,16 -20,24 -42,48 -55,65 -8,9 5,21 12,17 23,-28 49,-65 70,-92l0 78 -1 1c-14,15 -22,8 -29,26 1,5 17,8 30,8l0 62c-7,-5 -15,-8 -21,-12 -5,-2 -13,-7 -22,-8 -7,-1 -16,4 -23,0 -10,-6 -19,-12 -24,-15 -7,-5 -12,-6 -21,-10 -9,-5 -28,-15 -46,-14 -17,1 -38,27 -52,33 -13,6 -24,12 -35,16 -13,6 -23,10 -36,5 -19,-8 -14,-42 -3,-51 16,-13 30,-23 43,-37 8,-9 13,-22 20,-29 7,-7 15,-7 22,-8 8,-2 17,-5 23,2 6,6 6,14 12,20 8,8 15,8 27,7zm138 254l0 0c7,5 15,9 23,14 6,3 10,5 16,7l0 76c-14,2 -31,-7 -39,-17l0 -79zm39 -35l0 0 0 -72c-12,-7 -22,-13 -32,-19l-7 -3 0 87c10,0 23,1 32,6l7 1zm-39 -292l0 0c8,-12 16,-22 23,-29 6,-7 12,-16 16,-23l0 82 -6 7 6 4 0 106c-6,1 -5,0 -9,4 -1,2 5,8 9,9l0 40 -2 -1c-13,-8 -26,-16 -37,-23l0 -62c6,0 12,-1 14,-5 15,-15 22,-24 5,-31 -1,1 -9,-7 -19,1l0 -78zm82 228l0 0 0 -56 -5 -8 5 -3 0 -69c-5,0 -10,-1 -12,-2 4,-7 5,-7 12,-10l0 -55 -7 8c-8,8 -27,10 -36,8l0 106 1 -1c6,-1 5,5 6,5 3,6 2,7 -6,9l-1 0 0 40c16,10 31,21 43,29zm-43 120l0 0c7,2 13,3 14,8 7,23 8,27 -1,55 -2,8 -7,12 -13,13l0 -76zm43 -62l0 0c-3,-2 -8,-3 -14,-5 -9,1 -16,13 -29,10l0 -72c16,10 33,21 43,28l0 38zm-43 -338l0 0c5,-9 9,-16 15,-16 10,0 22,13 28,22l0 42 -6 -2 -6 5c-12,12 -22,21 -31,33l0 -82zm43 6l0 0 2 4c3,8 12,-2 17,0 12,3 22,13 23,21 2,9 6,20 12,24l0 115 -5 -4c-7,-4 -9,5 -12,9 -1,3 2,9 8,12l8 8 0 72 0 5 0 106c-16,-12 -33,-29 -55,-40l0 -38 8 5c7,5 16,0 14,-7 0,-2 -9,-8 -22,-17l0 -56 6 2c4,-1 9,0 9,-6 -1,-3 -1,-6 -7,-8l-8 0 0 -69 6 -2c7,-6 9,-8 2,-12 -1,1 -2,-1 -8,1l0 -55c8,-12 9,-22 0,-29l0 -42zm55 266l0 0 1 0c37,17 45,27 51,56 5,24 13,42 -7,56 -17,7 -31,2 -45,-6l0 -106zm0 -217l0 0c4,4 8,5 14,4 20,-2 31,-43 55,-29 13,10 13,33 14,45 0,16 -10,24 -51,31 -2,1 -3,0 -10,7 -6,9 10,19 -6,33 -8,7 26,34 28,38 2,6 10,1 9,-8 -1,-2 -2,-12 -6,-20 -5,-14 -12,-29 -8,-35 3,-8 17,0 33,10 12,8 34,8 41,19 8,10 15,15 5,57 -2,7 -15,12 -27,15 -19,7 -29,17 -48,24 -10,5 -36,14 -42,21l0 -72 10 3 7 -10c-5,-7 -12,-14 -17,-19l0 -115z"/>
  <path class="fil0" d="M9003 2635c26,8 43,9 44,5 7,-21 16,-58 17,-88 1,-15 14,-21 23,-23 22,-7 29,-10 39,-7 19,8 29,24 38,45 4,10 13,-1 -8,44 -9,22 -7,26 -3,30 9,7 21,6 39,6 22,-1 36,-30 64,28 5,7 6,16 -4,24 -12,9 -34,10 -60,17 -35,8 -85,-1 -84,22 7,58 44,146 105,217 15,19 36,36 60,50 35,20 64,36 43,41 -33,7 -143,-3 -168,-27 -27,-26 -81,-195 -89,-229l-6 1c-27,34 -82,95 -127,115 -20,8 -42,-5 -48,-13 -7,-8 -58,-34 -63,-53 -1,-12 6,-10 12,-9 72,15 87,-4 107,-12 52,-22 74,-79 70,-83 -67,-12 -92,-9 -106,-38 -20,-92 16,-96 53,-83 19,8 43,17 50,19z"/>
  <path class="fil0" d="M8209 2821c9,-1 17,0 29,9 31,21 41,62 56,82 6,0 16,-7 29,-15 16,-12 35,-23 31,-28 -13,-24 -81,-186 -95,-207l-7 -10c-26,-34 5,-60 16,-64 19,-6 71,12 72,30 -2,20 17,66 36,110 17,37 33,74 41,87 5,12 45,-23 58,-37 17,-12 -14,-72 -2,-91 5,-9 55,-22 79,14 12,21 17,51 23,79 5,20 12,44 15,52 4,9 -16,62 -24,75 -16,13 -43,-29 -53,-52 -6,-13 -7,-17 -12,-19 -12,4 -38,22 -51,38 -7,8 -5,23 -15,31 -49,20 -94,51 -98,62 -2,6 -17,36 -19,43 -1,7 -21,9 -26,13 -10,10 -27,-8 -49,-21 -23,-12 -17,-27 -19,-51 0,-27 -15,-69 -29,-95 -7,-14 -15,-30 13,-37z"/>
  <path class="fil0" d="M7649 3133c9,-5 10,-14 13,-28 10,-37 12,-51 23,-76 -19,-17 -40,-34 -57,-51l-12 -7c-12,-3 -19,-16 -19,-31l0 -5c0,-12 4,-24 12,-37 5,-7 49,-23 62,-11 19,19 38,43 58,57l6 -5 0 154 -6 -5c-7,0 -6,9 -6,13 -5,17 -14,30 -26,37 -7,2 20,23 37,31l0 129c-3,-1 -7,-2 -12,-3 -17,-1 -32,-1 -46,-15 -8,-17 -13,-26 -16,-37 -2,-5 -6,-9 -10,-15 -14,-15 -24,-29 -33,-49 -4,-12 4,-44 31,-48zm86 -193l0 0c9,-8 21,-20 32,-33 10,-15 16,-42 27,-55l7 -5 0 98c-15,6 -28,29 -31,40 1,7 17,27 31,39l0 274c-7,7 -16,13 -26,14 -10,1 -22,-8 -41,-13l0 -129c6,4 12,5 14,2 17,-14 20,-17 24,-36 2,-7 -24,-33 -38,-43l0 -154zm66 -92l0 0c21,-13 60,-12 79,-4 17,9 20,29 15,43l-5 11c-5,14 1,51 6,55 6,7 10,12 22,9 9,1 26,36 19,52 -2,6 -3,12 -12,21 -20,19 -31,49 -37,79 60,60 113,120 171,181 28,35 46,74 33,92 -12,10 -49,-2 -90,-41l-168 -158c-8,13 -16,34 -27,58 0,7 0,13 0,21 1,7 5,15 2,21l-8 10 0 -274c8,8 16,14 19,13 14,-10 15,-38 12,-49 -3,-15 -10,-37 -27,-44l-4 1 0 -98z"/>
  <path class="fil0" d="M8749 2091c-1100,0 -1992,892 -1992,1992 0,1100 892,1992 1992,1992 1100,0 1992,-892 1992,-1992 0,-1100 -892,-1992 -1992,-1992zm0 3852l0 0c-1027,0 -1860,-833 -1860,-1860 0,-1027 833,-1860 1860,-1860 1027,0 1860,833 1860,1860 0,1027 -833,1860 -1860,1860zm0 -3667l0 0c-998,0 -1806,809 -1806,1806 0,998 809,1806 1806,1806 998,0 1806,-809 1806,-1806 0,-998 -809,-1806 -1806,-1806zm0 3575l0 0c-977,0 -1768,-792 -1768,-1768 0,-977 792,-1768 1768,-1768 977,0 1768,792 1768,1768 0,977 -792,1768 -1768,1768z"/>
  <path class="fil0" d="M7542 3791l-99 -26 3 -9c26,3 49,-2 68,-14 20,-12 32,-28 38,-47 4,-15 4,-28 -2,-38 -5,-11 -13,-18 -24,-21 -7,-2 -13,-2 -19,0 -8,2 -17,7 -26,14 -7,5 -20,19 -39,40 -27,30 -49,48 -68,56 -18,8 -37,9 -57,3 -25,-7 -43,-23 -55,-47 -12,-24 -14,-51 -6,-81 3,-9 6,-18 10,-25 4,-8 11,-17 19,-28 5,-6 8,-11 9,-16 1,-4 1,-8 -1,-13 -2,-5 -5,-10 -10,-14l2 -8 111 32 -2 8c-33,-3 -60,3 -82,16 -22,13 -35,31 -41,52 -5,16 -4,30 2,43 6,12 15,20 27,23 7,2 14,2 22,0 8,-2 15,-6 23,-12 8,-6 19,-17 34,-33 21,-23 38,-39 50,-48 13,-9 26,-15 39,-18 13,-3 27,-3 40,1 23,7 41,21 53,43 12,22 14,46 6,72 -3,10 -7,19 -11,27 -4,6 -9,14 -17,22 -7,8 -12,15 -13,19l1 10c2,3 7,6 15,11l-2 7z"/>
  <path class="fil0" d="M7528 3798l-21 157 -8 -1 1 -8c2,-12 2,-20 0,-25 -2,-5 -5,-8 -9,-11 -4,-3 -15,-5 -32,-7l-149 -20c-27,-4 -45,-4 -55,-1 -9,3 -18,9 -25,17 -7,9 -12,20 -14,34 -2,16 0,31 5,43 6,13 15,23 27,30 12,8 34,13 67,18l124 17c14,2 23,2 30,0 6,-2 11,-5 14,-9 4,-6 7,-15 9,-28l8 1 -14 105 -8 -1 1 -6c1,-9 0,-16 -2,-22 -3,-6 -7,-11 -14,-14 -5,-3 -13,-5 -25,-6l-115 -16c-36,-5 -61,-11 -76,-18 -15,-7 -28,-20 -39,-40 -11,-20 -14,-46 -10,-77 4,-26 10,-46 19,-59 12,-18 26,-30 42,-36 16,-6 37,-7 62,-4l149 20c17,2 28,3 33,2 4,-1 8,-4 11,-9 3,-4 6,-13 7,-26l8 1z"/>
  <path class="fil0" d="M7492 4168l-182 160 132 -7c18,-1 31,-4 37,-10 8,-8 12,-20 11,-37l8 0 5 101 -8 0c-2,-13 -5,-21 -8,-26 -3,-4 -7,-8 -13,-10 -6,-2 -16,-3 -31,-2l-255 13 0 -8 244 -220 -194 10c-18,1 -29,6 -35,14 -6,8 -8,18 -8,28l0 7 -8 0 -6 -108 8 0c1,17 5,28 12,35 7,6 19,9 35,8l216 -11 8 -7c8,-7 13,-13 15,-18 2,-5 3,-12 3,-22l8 0 6 108z"/>
  <path class="fil0" d="M7635 4749l-8 3c-5,-9 -11,-15 -17,-18 -9,-5 -29,-9 -61,-14l-128 -21 -69 27c-15,6 -24,10 -26,13 -3,3 -5,7 -6,13 -1,6 0,12 3,20l6 16 -8 3 -63 -160 8 -3 6 15c3,8 7,14 12,18 3,3 8,4 13,5 4,0 13,-3 27,-8l57 -23 95 -115c19,-23 29,-38 31,-45 2,-7 1,-15 -2,-24l8 -3 54 136 -8 3 -2 -6c-3,-8 -7,-14 -10,-16l-10 -2c-5,2 -15,13 -31,32l-74 89 106 17c26,4 42,5 49,2 4,-2 6,-5 7,-9 2,-6 0,-16 -4,-29l8 -3 34 87z"/>
  <path class="fil0" d="M7507 4935l-59 -91 -32 5c-11,2 -19,5 -24,8 -7,5 -11,11 -10,19 0,5 4,14 12,28l-7 5 -55 -86 7 -5c7,8 16,13 26,15 10,2 28,1 53,-3l265 -41 2 4 -151 229c-14,22 -22,37 -24,46 -1,7 0,14 5,23l-7 5 -80 -124 7 -5 3 5c6,10 12,16 18,18l11 -1 6 -6c1,-1 4,-6 11,-15l23 -34zm10 -15l0 0 64 -96 -114 18 50 78z"/>
  <path class="fil0" d="M7908 5068l-60 57 -6 -6c11,-17 17,-30 19,-40 2,-10 1,-20 -2,-31 -2,-6 -8,-14 -18,-25l-16 -17 -171 163c-11,11 -18,18 -19,22 -2,4 -2,9 0,14 1,6 5,12 11,18l7 7 -6 6 -110 -116 6 -6 7 7c6,6 12,11 18,12 4,1 9,1 14,-1 4,-1 11,-7 22,-18l171 -163 -15 -16c-14,-15 -28,-23 -40,-24 -18,-1 -36,5 -55,18l-6 -6 60 -57 189 199z"/>
  <polygon class="fil0" points="7886,5280 7798,5212 7822,5181 7910,5249 "/>
  <path class="fil0" d="M8162 5225l-51 89 -8 -5c10,-24 11,-47 5,-69 -7,-22 -18,-38 -35,-49 -13,-8 -26,-11 -38,-8 -12,2 -21,8 -26,17 -4,6 -5,12 -5,18 0,8 2,18 7,29 3,8 13,24 28,48 21,34 33,60 36,80 2,20 -2,38 -12,56 -13,22 -33,35 -60,41 -27,5 -53,0 -79,-16 -8,-5 -15,-11 -22,-17 -6,-6 -14,-15 -22,-26 -5,-6 -9,-11 -13,-13 -3,-2 -8,-3 -13,-3 -5,0 -11,2 -16,6l-7 -4 60 -99 7 4c-11,31 -13,59 -6,83 7,24 20,42 39,54 14,9 28,12 42,9 13,-3 23,-9 29,-20 4,-6 6,-13 6,-21 0,-8 -1,-16 -5,-26 -4,-9 -11,-23 -23,-42 -17,-26 -28,-47 -33,-61 -5,-15 -8,-29 -7,-42 1,-14 5,-26 12,-39 13,-21 31,-34 55,-39 24,-5 48,-1 71,13 9,5 16,11 23,18 5,5 11,13 17,22 6,9 11,15 14,17l10 2c3,-1 8,-5 14,-12l6 4z"/>
  <path class="fil0" d="M8258 5294l-46 116 6 2c18,7 33,7 46,-1 13,-8 24,-23 35,-44l8 3 -59 149 -8 -3c5,-17 7,-32 5,-44 -1,-13 -5,-22 -10,-28 -6,-6 -15,-12 -29,-18l-32 80c-6,16 -9,26 -9,30 0,4 1,8 4,12 3,4 8,7 16,10l17 7c27,11 50,13 71,7 21,-6 40,-20 57,-42l8 3 -49 85 -246 -98 3 -8 9 4c8,3 15,4 22,4 4,0 9,-3 12,-7 3,-3 7,-11 13,-25l75 -187c5,-13 8,-21 8,-24 1,-5 -1,-10 -3,-14 -4,-6 -10,-11 -19,-15l-9 -4 3 -8 238 95 -33 84 -8 -3c4,-22 4,-39 1,-51 -4,-12 -12,-23 -23,-32 -7,-6 -21,-13 -43,-21l-29 -12z"/>
  <path class="fil0" d="M8498 5354l115 214 24 -129c3,-18 3,-31 -1,-38 -6,-10 -17,-16 -34,-19l2 -8 99 18 -1 8c-13,-1 -22,0 -27,2 -5,2 -9,5 -13,11 -3,5 -7,15 -9,29l-46 251 -8 -1 -158 -288 -35 191c-3,17 -1,30 5,37 7,8 15,12 26,14l7 1 -2 8 -107 -19 2 -8c17,3 29,2 37,-4 8,-5 13,-16 16,-32l39 -212 -5 -9c-5,-9 -10,-15 -14,-19 -4,-3 -11,-6 -20,-8l1 -8 107 19z"/>
  <path class="fil0" d="M8791 5391l156 -23 1 8 -8 1c-12,2 -20,4 -24,7 -4,3 -7,7 -8,12 -1,5 -1,16 2,33l22 148c4,27 9,45 14,53 5,8 13,15 23,19 10,4 23,6 37,3 16,-2 30,-8 40,-17 10,-9 18,-20 21,-34 4,-14 3,-37 -1,-69l-18 -124c-2,-14 -5,-23 -8,-28 -4,-5 -8,-9 -13,-10 -7,-2 -17,-3 -29,-1l-1 -8 105 -15 1 8 -6 1c-8,1 -15,4 -20,8 -5,4 -9,10 -10,17 -1,5 -1,14 1,26l17 115c5,36 7,62 4,78 -2,16 -12,33 -28,49 -16,16 -40,26 -71,31 -26,4 -47,3 -62,-2 -21,-7 -36,-17 -47,-31 -10,-14 -17,-33 -21,-58l-22 -148c-3,-17 -5,-28 -8,-32 -3,-4 -6,-7 -12,-9 -5,-2 -14,-2 -27,0l-1 -8z"/>
  <path class="fil0" d="M9177 5315l207 127 -45 -124c-6,-17 -13,-28 -20,-32 -10,-6 -23,-6 -39,1l-3 -8 95 -35 3 8c-12,6 -19,11 -22,15 -3,4 -5,9 -5,16 0,6 2,16 7,30l87 240 -7 3 -282 -169 67 183c6,17 14,26 24,29 10,3 19,3 29,-1l7 -2 3 8 -102 37 -3 -8c16,-6 26,-13 30,-22 4,-9 3,-21 -2,-36l-74 -203 -9 -5c-9,-5 -16,-8 -22,-9 -6,-1 -13,0 -22,3l-3 -8 102 -37z"/>
  <path class="fil0" d="M9654 5419l4 7 -139 79 -4 -7 9 -5c8,-4 13,-9 16,-15 2,-4 3,-8 3,-14 0,-4 -4,-13 -12,-26l-100 -175c-8,-14 -13,-22 -17,-24 -3,-3 -8,-4 -14,-4 -6,0 -12,2 -20,6l-9 5 -4 -7 139 -79 4 7 -9 5c-8,4 -13,9 -16,15 -2,4 -3,8 -3,14 0,4 4,13 12,26l100 175c8,14 13,22 17,24 3,3 8,4 14,4 6,0 12,-2 20,-6l9 -5z"/>
  <path class="fil0" d="M9746 4969l5 6c-7,9 -11,19 -12,33 0,10 4,29 12,59l68 247 -6 5 -236 -120c-28,-14 -46,-22 -53,-24 -7,-1 -15,1 -25,8l-5 -6 113 -94 5 6 -4 3c-10,8 -16,16 -18,21 -1,4 0,8 2,11l8 6c3,2 13,7 28,15l148 76 -40 -143c-5,-17 -9,-28 -11,-34 -2,-5 -5,-10 -7,-13 -3,-3 -6,-6 -10,-7 -4,-1 -8,-1 -13,1 -7,2 -14,7 -22,13l-5 -6 77 -64z"/>
  <path class="fil0" d="M9806 4908l100 74 4 -5c12,-16 15,-31 10,-45 -5,-14 -16,-29 -33,-46l5 -7 129 95 -5 7c-15,-9 -29,-14 -41,-16 -12,-2 -22,-1 -30,3 -8,4 -16,12 -25,23l69 51c14,10 22,16 26,17 4,1 8,1 12,-1 4,-2 9,-6 14,-13l11 -15c17,-23 25,-45 25,-67 0,-22 -9,-44 -26,-66l5 -7 70 69 -157 213 -7 -5 6 -8c5,-7 8,-14 9,-20 1,-4 0,-9 -3,-14 -2,-3 -9,-10 -21,-19l-162 -120c-11,-8 -18,-13 -21,-14 -5,-2 -10,-2 -15,-1 -7,2 -13,7 -19,15l-6 8 -7 -5 153 -206 73 54 -5 7c-20,-10 -37,-14 -49,-14 -12,1 -25,5 -37,14 -7,5 -18,17 -32,36l-19 25z"/>
  <path class="fil0" d="M10081 4738l80 32c15,6 25,9 30,9 5,0 9,-2 13,-6 4,-4 9,-12 14,-25l8 3 -58 146 -8 -3c5,-13 8,-23 7,-28 -1,-6 -2,-10 -6,-14 -3,-3 -12,-8 -28,-14l-185 -73c-15,-6 -25,-9 -30,-9 -5,0 -9,2 -14,6 -4,4 -9,12 -14,25l-8 -3 53 -132c14,-34 26,-59 37,-73 11,-14 25,-24 42,-29 17,-5 34,-4 51,3 21,8 35,23 43,43 5,13 6,29 3,48l123 -30c16,-4 26,-7 31,-10 7,-4 12,-10 15,-17l8 3 -36 90 -166 40 -7 19zm-139 -55l0 0 125 50 5 -12c8,-19 12,-35 12,-46 0,-11 -3,-21 -10,-30 -7,-9 -18,-17 -33,-23 -22,-9 -40,-10 -54,-4 -14,6 -26,20 -35,43l-9 22z"/>
  <path class="fil0" d="M10013 4318l101 14 -2 9c-26,0 -48,7 -66,22 -18,14 -29,31 -32,51 -2,15 0,28 6,38 7,10 15,16 26,18 7,1 13,1 19,-2 8,-3 16,-9 24,-17 6,-6 17,-21 34,-44 23,-32 44,-54 61,-63 17,-10 36,-13 56,-9 25,4 45,18 60,40 15,23 20,49 15,79 -2,9 -4,18 -7,26 -3,8 -9,18 -16,30 -4,7 -7,12 -7,17 -1,4 0,8 2,13 2,5 6,9 12,13l-1 8 -114 -19 1 -8c33,-1 60,-10 80,-26 20,-16 32,-35 35,-56 3,-17 0,-31 -7,-42 -7,-11 -17,-18 -29,-20 -7,-1 -14,0 -22,2 -7,3 -15,7 -22,14 -7,7 -17,19 -30,37 -18,25 -33,43 -44,54 -11,10 -24,18 -36,22 -13,5 -26,6 -40,3 -24,-4 -43,-16 -57,-37 -14,-21 -19,-44 -14,-71 2,-10 4,-19 8,-28 3,-7 8,-15 14,-24 7,-9 10,-16 11,-20l-2 -10c-2,-3 -7,-6 -16,-9l1 -7z"/>
  <path class="fil0" d="M10338 4139l8 0 -2 160 -8 0 0 -10c0,-9 -1,-16 -4,-22 -2,-4 -6,-7 -11,-9 -4,-2 -13,-3 -28,-3l-201 -3c-16,0 -25,0 -29,2 -4,2 -7,5 -10,10 -3,5 -5,12 -5,20l0 10 -8 0 2 -160 8 0 0 10c0,9 1,16 4,22 2,4 6,7 11,9 4,2 13,3 28,3l201 3c16,0 25,0 29,-2 4,-2 7,-5 10,-10 3,-5 5,-12 5,-20l0 -10z"/>
  <path class="fil0" d="M10024 3854l82 -11 1 8c-18,7 -31,14 -39,21 -7,7 -13,16 -17,27 -2,6 -2,16 0,30l3 23 234 -31c16,-2 25,-4 29,-6 4,-2 7,-6 9,-11 2,-5 3,-12 2,-21l-1 -10 8 -1 21 159 -8 1 -1 -10c-1,-9 -4,-16 -7,-21 -3,-4 -7,-6 -12,-8 -4,-1 -13,-1 -29,1l-234 31 3 22c3,20 9,35 19,43 14,11 32,17 55,18l1 9 -82 11 -36 -273z"/>
  <path class="fil0" d="M9932 3533l8 -2c4,9 9,16 15,20 8,5 28,12 60,20l125 33 71 -21c15,-4 24,-8 28,-11 3,-3 6,-7 7,-12 1,-6 1,-12 -1,-20l-5 -16 8 -2 48 165 -8 2 -4 -15c-3,-9 -6,-15 -11,-19 -3,-3 -7,-5 -13,-6 -4,-1 -13,1 -28,6l-59 17 -106 106c-21,21 -33,35 -35,42 -3,7 -3,15 0,24l-8 2 -41 -141 8 -2 2 6c2,9 5,14 9,17l9 3c5,-2 17,-11 34,-29l82 -82 -104 -27c-26,-7 -42,-9 -49,-7 -4,1 -7,4 -8,8 -2,6 -2,16 1,29l-8 2 -26 -90z"/>
  <path class="fil0" d="M8749 4041c-8,0 -14,6 -14,14l0 109c0,8 6,14 14,14 8,0 14,-6 14,-14l0 -109c0,-8 -6,-14 -14,-14zm443 -486l0 0c-57,-190 -234,-329 -443,-329 -209,0 -386,139 -443,329 -314,18 -563,278 -563,596 0,318 249,578 563,596 57,190 234,329 443,329 209,0 386,-139 443,-329 314,-18 563,-278 563,-596 0,-318 -249,-578 -563,-596zm479 629l0 0c0,6 -1,13 -1,19l-1 9c-1,5 -1,11 -2,16l-2 10c-1,5 -2,10 -3,15l-2 10c-1,5 -2,10 -3,14l-3 10c-1,5 -2,9 -4,14l-3 10c-1,4 -3,9 -4,13l-4 10c-2,4 -3,9 -5,13l-4 10c-2,4 -4,8 -6,12l-5 10c-2,4 -4,8 -6,12l-5 9c-2,4 -5,8 -7,12l-5 9c-2,4 -5,8 -7,12l-6 9c-3,4 -5,8 -8,12l-6 8c-3,4 -6,8 -9,12l-6 7c-4,5 -8,9 -11,13l-4 5c-5,6 -11,12 -16,17l-7 6 -11 10 -8 7 -10 9 -9 7 -10 8 -10 7 -10 7 -10 7 -10 6 -10 6 -10 6 -11 6 -10 5 -11 5 -11 5c-4,2 -8,3 -12,5l-11 4c-4,2 -8,3 -12,5l-11 4c-4,1 -8,3 -12,4l-11 3c-4,1 -8,2 -13,3l-11 3c-4,1 -9,2 -13,3l-11 2c-5,1 -9,2 -14,2l-10 1c-22,3 -44,4 -66,4 -11,0 -21,0 -32,-1 -4,28 -11,55 -20,81 -2,5 -4,9 -5,14l-3 7 -4 8 -4 7 -4 7 -4 7 -5 9 -6 10 -5 8 -4 7 -5 7 -5 6 -6 7 -4 6c-3,4 -7,8 -10,11l-5 5 -7 7 -5 5 -7 7 -5 5 -10 8 -5 4 -10 8 -5 4 -8 6 -5 4 -10 6 -4 3c-5,3 -9,5 -14,8l-4 2 -11 5 -5 3 -10 5 -5 2c-5,2 -10,4 -15,6l-1 0c-5,2 -10,3 -15,5l-5 2c-4,1 -8,2 -12,3l-6 1c-4,1 -9,2 -13,3l-4 1c-6,1 -11,2 -17,3l-4 1c-4,1 -9,1 -13,2l-6 1c-4,0 -8,1 -13,1l-5 0c-6,0 -12,0 -18,0l0 0c-6,0 -12,0 -18,0l-5 0c-4,0 -8,-1 -12,-1l-6 -1c-4,0 -9,-1 -13,-2l-4 -1c-6,-1 -11,-2 -17,-3l-4 -1c-4,-1 -8,-2 -12,-3l-6 -2 -11 -3 -6 -2c-5,-2 -9,-3 -14,-5l-3 -1c-5,-2 -9,-4 -14,-6l-6 -2 -10 -4 -6 -3 -10 -5 -5 -3c-5,-3 -9,-5 -14,-8l-5 -3 -9 -5 -6 -4 -8 -5 -6 -4 -8 -6 -8 -7 -8 -7 -6 -6 -6 -6 -6 -6 -5 -6 -6 -6 -9 -10 -6 -8 -5 -6 -5 -7 -4 -6 -5 -8 -4 -6c-3,-5 -6,-10 -9,-15l-3 -6 -5 -8 -3 -6 -4 -9 -3 -6 -4 -9 -1 -3c-12,-29 -20,-60 -24,-92 -11,1 -21,1 -32,1 -23,0 -45,-2 -67,-5l-10 -1c-5,-1 -10,-2 -14,-2l-10 -2c-5,-1 -9,-2 -14,-3l-10 -2c-4,-1 -9,-2 -13,-4l-10 -3c-4,-1 -9,-3 -13,-4l-10 -3c-4,-2 -8,-3 -13,-5l-10 -4c-4,-2 -8,-3 -12,-5l-10 -4c-4,-2 -8,-4 -12,-6l-10 -5c-4,-2 -8,-4 -11,-6l-10 -5 -11 -7 -9 -6 -11 -7 -9 -6 -11 -8 -9 -7 -10 -8 -8 -7 -10 -9 -8 -7 -9 -9 -6 -7c-6,-6 -12,-13 -18,-20l-8 -9 -8 -10 -7 -9 -7 -10 -7 -10 -7 -10 -7 -10 -6 -10 -6 -11 -6 -11 -6 -11 -5 -11 -5 -11 -5 -11c-2,-4 -3,-8 -5,-12l-4 -11c-1,-4 -3,-8 -4,-12l-4 -11c-1,-4 -2,-8 -4,-12 -1,-4 -2,-8 -3,-11 -1,-4 -2,-8 -3,-13 -1,-4 -2,-8 -3,-12 -1,-4 -2,-9 -2,-13 -1,-4 -1,-8 -2,-12 -1,-5 -1,-9 -2,-14l-1 -11c0,-5 -1,-10 -1,-15l-1 -11c0,-7 0,-13 0,-20l0 -6 0 -6c0,-7 0,-13 0,-20l1 -11c0,-5 1,-10 1,-15l1 -11c1,-5 1,-9 2,-14 1,-4 1,-8 2,-12 1,-4 2,-9 2,-13 1,-4 2,-8 3,-12 1,-4 2,-8 3,-13 1,-4 2,-8 3,-12 1,-4 2,-8 4,-12l4 -11c1,-4 3,-8 4,-12l4 -11c1,-4 3,-8 5,-12l5 -11 5 -11 5 -11 6 -11 6 -11 6 -11 6 -10 7 -10 7 -10 7 -10 7 -10 7 -9 8 -10 8 -9c6,-7 12,-13 18,-20l6 -7 9 -9 8 -7 10 -9 8 -7 10 -8 9 -7 11 -8 9 -6 11 -7 9 -6 11 -7 10 -5c4,-2 8,-4 11,-6l10 -5c4,-2 8,-4 12,-6l10 -5c4,-2 8,-4 12,-5l10 -4c4,-2 8,-3 13,-5l10 -4c4,-1 9,-3 13,-4l10 -3c4,-1 9,-2 13,-4l10 -2c5,-1 9,-2 14,-3l10 -2c5,-1 9,-2 14,-2l10 -1c22,-3 44,-5 67,-5 11,0 21,0 32,1 4,-31 12,-61 23,-89l2 -5 4 -9 3 -6 4 -8 3 -6 4 -8 4 -6c3,-5 5,-9 8,-14l4 -6 5 -7 4 -6 5 -7 5 -6 5 -6 10 -11 5 -6 6 -6 6 -6 6 -6 6 -5 8 -7 7 -6 9 -7 6 -4 8 -6 6 -4 9 -6 5 -3c4,-3 9,-5 14,-8l5 -3 10 -5 6 -3 10 -4 6 -2c5,-2 10,-4 14,-6l3 -1c5,-2 9,-3 14,-5l5 -2 11 -3 6 -2c4,-1 8,-2 12,-3l4 -1c6,-1 11,-2 17,-3l4 -1c4,-1 9,-1 13,-2l6 -1c4,0 8,-1 12,-1l5 0c6,0 12,0 18,0l0 0c6,0 12,0 18,0l5 0c4,0 8,1 13,1l6 1c4,1 9,1 13,2l4 1c6,1 11,2 17,3l4 1c4,1 9,2 13,3l6 1c4,1 8,2 12,3l5 2c5,2 10,3 15,5l1 0c5,2 10,4 16,6l5 2 11 5 5 3 11 5 4 2c5,3 9,5 14,8l4 3 10 6 5 4 9 6 5 4 10 8 4 3 11 9 5 4 7 7 5 5 7 7 4 5c3,4 7,8 10,12l4 5 6 8 5 6 5 7 4 6 6 9 5 9 6 10 4 7 4 8 4 7 4 8 3 7c2,5 4,9 6,14l0 0c10,26 16,53 20,81 10,-1 21,-1 32,-1 22,0 44,2 66,4l10 1c5,1 9,2 14,2l11 2c4,1 9,2 13,3l11 3c4,1 9,2 13,3l11 3c4,1 8,3 12,4l11 4c4,1 8,3 12,4l11 4c4,2 8,3 12,5l11 5 11 5 10 5 11 6 10 6 10 6 10 6 10 7 10 7 10 7 10 8 9 7 10 9 8 7 11 10 7 6c6,6 11,11 16,17l4 5c4,4 8,9 11,13l6 7c3,4 6,8 9,12l6 8c3,4 6,8 8,12l6 9c3,4 5,8 7,12l5 9c2,4 5,8 7,12l5 9c2,4 4,8 6,12l5 10c2,4 4,8 6,12l4 10c2,4 4,9 5,13l4 10c2,4 3,9 4,13l3 10c1,5 3,9 4,14l3 10c1,5 2,10 3,14l2 10c1,5 2,10 3,15l2 10c1,5 1,11 2,16l1 9c1,6 1,13 1,19l0 7c0,9 1,17 1,26 0,9 0,17 -1,26l0 7zm-922 -282l0 0c17,0 30,-13 30,-30 0,-17 -13,-30 -30,-30 -17,0 -30,13 -30,30 0,17 13,30 30,30zm122 -105l0 0 -73 0 0 166 -25 0c-7,-5 -16,-9 -25,-9 -10,0 -18,3 -25,9l-24 0 0 -166 -73 0 0 507 -30 0 0 74 304 0 0 -74 -30 0 0 -507zm-73 507l0 0 -99 0 0 -47 99 0 0 47zm0 -80l0 0 -99 0 0 -230 28 0c1,-11 10,-19 21,-19 11,0 20,8 21,19l29 0 0 230zm72 -533l0 0 -60 0 0 -48 -17 0 0 -31 16 0 0 -28 -16 0 0 -4c0,-22 -16,-41 -38,-44l0 -77 -13 0 0 77c-21,3 -38,22 -38,44l0 4 -16 0 0 28 16 0 0 31 -17 0 0 48 -60 0 0 45 -30 0 0 29 303 0 0 -29 -30 0 0 -45zm-135 0l0 0 -17 0 0 -48 17 0 0 48zm45 0l0 0 -17 0 0 -48 17 0 0 48zm377 -11l0 0 0 0 -67 0c-5,-184 -155,-332 -341,-332 -185,0 -336,148 -341,332l-67 0 0 0c-260,0 -471,211 -471,471 0,260 211,471 471,471l68 0c5,184 155,332 341,332 185,0 336,-148 341,-332l68 0c260,0 471,-211 471,-471 0,-260 -211,-471 -471,-471zm-813 623l0 0c-27,-24 -61,-40 -98,-47l190 0c-38,0 -71,19 -91,47zm23 23l0 0c14,-23 40,-38 69,-38 45,0 81,36 81,81l0 92 -102 0 0 -4c0,-50 -18,-95 -47,-131zm150 167l0 0 0 195 -44 0 0 -126c0,-26 -10,-51 -26,-69l69 0zm232 431l0 0c-134,0 -249,-85 -292,-205l584 0c-43,119 -158,205 -292,205zm-81 -237l0 0 0 -160c7,-41 42,-72 83,-72 38,0 71,27 81,63l0 170 -164 0zm357 -126l0 0 0 0 0 125 -45 0 0 -195 70 0c-16,19 -25,43 -25,69zm59 -105l0 0 0 4 -104 0 0 -92c0,-45 36,-81 81,-81 29,0 55,16 69,39 -29,35 -47,80 -47,130zm70 -153l0 0c-20,-29 -54,-47 -92,-48l191 0c-38,7 -72,23 -99,48zm364 -316l0 0c-109,0 -201,74 -228,175l-407 0 0 32 401 0c-1,9 -2,19 -2,29l0 1 -399 0 0 32 179 0c-62,0 -113,51 -113,113l0 319 -44 0 0 -275 27 0 0 -21 -99 0 0 76c-14,-16 -32,-27 -52,-33l0 -24 12 0 0 -19 -85 0 0 19 12 0 0 25c-20,6 -37,19 -50,34l0 -78 -101 0 0 21 27 0 0 275 -46 0 0 -319c0,-62 -50,-113 -113,-113l180 0 0 -32 -399 0 0 -1c0,-10 -1,-19 -2,-29l401 0 0 -32 -407 0c-27,-101 -119,-175 -228,-175 -16,0 -32,2 -47,5 63,-163 222,-278 407,-278l98 0 0 -26 0 0c0,-172 139,-311 311,-311 172,0 311,139 311,311l0 26 98 0c185,0 343,116 407,278 -15,-3 -31,-5 -47,-5zm-795 774l0 0 -56 0 -13 40 45 0 -2 16 -49 0 -6 19 75 0 6 -75zm-22 27l0 0 -25 0 3 -13 24 0 -3 14zm183 29l0 0 9 20 28 -1 -11 -17 13 -1 -11 -19 -15 0 -19 -37 -19 0 -20 35 7 20 38 0zm-16 -35l0 0 8 17 -16 0 8 -17zm-232 -20l0 0 -22 0 -34 75 30 0 26 -75zm110 75l0 0 76 0 -5 -19 -30 0 24 -21 -8 -35 -57 0 0 29 22 0 -2 -12 21 0 1 13 -41 25 -1 20z"/>
 </g>
</svg>
